<?xml version="1.0" encoding="UTF-8" standalone="no"?>
<!DOCTYPE svg PUBLIC "-//W3C//DTD SVG 1.1//EN" "http://www.w3.org/Graphics/SVG/1.1/DTD/svg11.dtd">
<svg version="1.1" xmlns="http://www.w3.org/2000/svg" xmlns:xlink="http://www.w3.org/1999/xlink" preserveAspectRatio="xMidYMid meet" viewBox="109.59609455292906 48.999999999999886 1004 704.0000000000002" width="1000" height="700"><defs><path d="M1110.6 400C1110.6 593.17 886.55 750 610.6 750C334.64 750 110.6 593.17 110.6 400C110.6 206.83 334.64 50 610.6 50C886.55 50 1110.6 206.83 1110.6 400Z" id="ewKql9Zan"></path><path d="M1090.08 399.12C1090.08 580.96 875.23 728.58 610.61 728.58C345.99 728.58 131.15 580.96 131.15 399.12C131.15 217.28 345.99 69.65 610.61 69.65C875.23 69.65 1090.08 217.28 1090.08 399.12Z" id="c3kNuhqcAb"></path><radialGradient id="gradientaCoMksPgA" gradientUnits="userSpaceOnUse" cx="409.63" cy="141.22" dx="878.26" dy="607.01" r="660.74"><stop style="stop-color: #e6c577;stop-opacity: 1" offset="0%"></stop><stop style="stop-color: #715b25;stop-opacity: 1" offset="100%"></stop></radialGradient><path d="M935.54 400C935.54 510.38 792.15 600 615.54 600C438.92 600 295.54 510.38 295.54 400C295.54 289.62 438.92 200 615.54 200C792.15 200 935.54 289.62 935.54 400Z" id="b1QmwCV1Bd"></path><radialGradient id="gradientajKVhEYce" gradientUnits="userSpaceOnUse" cx="458.39" cy="272.33" dx="822.68" dy="525.9" r="443.85"><stop style="stop-color: #eddbb1;stop-opacity: 1" offset="0%"></stop><stop style="stop-color: #877038;stop-opacity: 1" offset="100%"></stop></radialGradient><mask id="maska40IYim7l" x="289.54" y="194" width="652" height="412" maskUnits="userSpaceOnUse"><rect x="289.54" y="194" width="652" height="412" fill="white"></rect><use xlink:href="#b1QmwCV1Bd" opacity="1" fill="black"></use></mask><path d="M248.65 597.5C258.83 606.56 269.76 614.75 281.32 621.97C296.75 631.6 329.75 652.21 346.2 662.48C353.07 666.77 362.09 664.94 366.74 658.3C378.07 642.13 406.02 602.23 417.91 585.26C420.9 580.99 419.72 575.09 415.32 572.3C393.25 558.32 382.87 551.74 372.74 545.32C329.28 517.79 298.23 474.44 286.13 424.44C285.35 421.21 288.24 433.18 284.06 415.88C282.99 411.48 278.95 408.45 274.42 408.67C247.55 409.96 176.08 413.39 149.54 414.67C144.83 414.89 141.67 419.62 143.27 424.06C151.69 447.48 155.81 458.94 159.75 469.9C176.57 516.65 204.81 558.45 241.91 591.5C246.32 595.42 235.99 586.23 248.65 597.5Z" id="a9LCcy0t89"></path><path d="M272.48 177.97C283.59 170.07 295.35 163.13 307.63 157.21C324.02 149.33 359.08 132.45 376.55 124.04C383.85 120.53 392.62 123.34 396.52 130.45C406.01 147.77 429.42 190.48 439.39 208.65C441.89 213.22 440.07 218.95 435.39 221.24C411.93 232.73 400.89 238.13 390.12 243.4C343.91 266.02 308.3 305.71 290.8 354.09C289.67 357.21 293.86 345.62 287.81 362.36C286.27 366.63 281.92 369.19 277.44 368.48C250.87 364.26 180.21 353.03 153.97 348.86C149.3 348.12 146.68 343.07 148.76 338.83C159.69 316.48 165.04 305.53 170.16 295.07C191.99 250.44 224.63 211.98 265.13 183.19C269.94 179.77 258.67 187.78 272.48 177.97Z" id="hWbtuhwY"></path><path d="M980.64 597.5C970.46 606.56 959.53 614.75 947.97 621.97C932.54 631.6 899.54 652.21 883.09 662.48C876.22 666.77 867.19 664.94 862.55 658.3C851.22 642.13 823.27 602.23 811.38 585.26C808.39 580.99 809.57 575.09 813.97 572.3C836.04 558.32 846.42 551.74 856.55 545.32C900.01 517.79 931.06 474.44 943.16 424.44C943.94 421.21 941.04 433.18 945.23 415.88C946.28 411.55 950.39 408.67 954.83 409.17C979.85 411.99 1045.83 419.42 1070.51 422.2C1075.42 422.75 1078.62 427.62 1077.18 432.35C1070.53 454.11 1068.83 459.65 1066.05 468.74C1051.57 516.1 1024.36 558.56 987.38 591.5C982.97 595.42 993.3 586.23 980.64 597.5Z" id="a6dZNqL06q"></path><path d="M966.38 187.59C955.66 179.17 944.24 171.68 932.25 165.2C916.26 156.54 882.04 138.03 864.98 128.8C857.86 124.94 848.96 127.34 844.73 134.25C834.43 151.1 809.02 192.65 798.21 210.33C795.49 214.78 797.04 220.59 801.6 223.1C824.49 235.68 835.26 241.6 845.77 247.38C890.86 272.16 924.55 313.49 939.74 362.64C940.72 365.82 937.08 354.05 942.34 371.05C943.68 375.42 947.87 378.27 952.43 377.93C977.3 376.07 1042.79 371.15 1067.33 369.31C1072.13 368.95 1075.29 364.16 1073.75 359.61C1065.6 335.66 1061.29 322.98 1057.41 311.58C1041.51 264.8 1012.34 223.66 973.48 193.16C968.84 189.52 979.71 198.05 966.38 187.59Z" id="c5KUtf0s3l"></path><path d="M496.22 703.82C516.63 706.48 529.39 708.15 534.49 708.81C589.93 716.04 646.09 715.82 701.47 708.15C705.64 707.57 716.05 706.13 732.7 703.82C774.13 693.49 800.02 687.04 810.38 684.46C814.6 683.4 817 678.95 815.56 674.85C809.25 656.92 793.03 610.78 786.72 592.85C785.21 588.55 780.61 586.18 776.23 587.43C765.78 590.43 742.22 597.18 731.77 600.18C731.77 600.18 716.08 604.25 716.08 604.25C697.89 608.47 712.08 605.18 709.1 605.87C653.7 618.74 596.25 620.13 540.29 609.94C538.12 609.55 554.97 612.61 537.43 609.42C537.43 609.42 521.53 606.26 521.53 606.26C505.33 602.75 464.64 593.96 448.44 590.46C443.93 589.48 439.41 592.07 437.97 596.44C432.27 613.65 417.74 657.59 412.04 674.8C410.67 678.95 413.12 683.39 417.37 684.43C427.88 687.02 454.17 693.48 496.22 703.82Z" id="d3821mhUT7"></path><path d="M488.29 94.49C497.55 93.01 503.33 92.08 505.64 91.71C579.16 79.97 654.07 79.95 727.59 91.67C729.94 92.05 735.83 92.98 745.26 94.49C745.26 137.21 745.26 163.9 745.26 174.58C745.26 180.11 740.78 184.58 735.26 184.58C685.87 184.58 547.69 184.58 498.29 184.58C492.77 184.58 488.29 180.11 488.29 174.58C488.29 163.9 488.29 137.21 488.29 94.49Z" id="ayKyHOZMg"></path></defs><g><g><use xlink:href="#ewKql9Zan" opacity="1" fill="#cfcebb" fill-opacity="1"></use></g><g><use xlink:href="#c3kNuhqcAb" opacity="1" fill="url(#gradientaCoMksPgA)"></use></g><g><use xlink:href="#b1QmwCV1Bd" opacity="1" fill="url(#gradientajKVhEYce)"></use><g mask="url(#maska40IYim7l)"><use xlink:href="#b1QmwCV1Bd" opacity="1" fill-opacity="0" stroke="#7b5a18" stroke-width="6" stroke-opacity="1"></use></g><g><filter id="shadow13163179" x="282.54" y="187" width="668" height="428" filterUnits="userSpaceOnUse" primitiveUnits="userSpaceOnUse"><feFlood></feFlood><feComposite in2="SourceAlpha" operator="out"></feComposite><feGaussianBlur stdDeviation="1"></feGaussianBlur><feOffset dx="2" dy="2" result="afterOffset"></feOffset><feFlood flood-color="#3e3939" flood-opacity="0.8"></feFlood><feComposite in2="afterOffset" operator="in"></feComposite><feMorphology operator="dilate" radius="4"></feMorphology><feComposite in2="SourceAlpha" operator="in"></feComposite></filter><path d="M935.54 400C935.54 510.38 792.15 600 615.54 600C438.92 600 295.54 510.38 295.54 400C295.54 289.62 438.92 200 615.54 200C792.15 200 935.54 289.62 935.54 400Z" id="bKZKdDC0U" fill="white" fill-opacity="1" filter="url(#shadow13163179)"></path></g></g><g><use xlink:href="#a9LCcy0t89" opacity="1" fill="#675c14" fill-opacity="1"></use><g><filter id="shadow13617241" x="133.85" y="399.66" width="295.71" height="275.14" filterUnits="userSpaceOnUse" primitiveUnits="userSpaceOnUse"><feFlood></feFlood><feComposite in2="SourceAlpha" operator="out"></feComposite><feGaussianBlur stdDeviation="1"></feGaussianBlur><feOffset dx="1" dy="1" result="afterOffset"></feOffset><feFlood flood-color="#ffffff" flood-opacity="0.8"></feFlood><feComposite in2="afterOffset" operator="in"></feComposite><feMorphology operator="dilate" radius="1"></feMorphology><feComposite in2="SourceAlpha" operator="in"></feComposite></filter><path d="M248.65 597.5C258.83 606.56 269.76 614.75 281.32 621.97C296.75 631.6 329.75 652.21 346.2 662.48C353.07 666.77 362.09 664.94 366.74 658.3C378.07 642.13 406.02 602.23 417.91 585.26C420.9 580.99 419.72 575.09 415.32 572.3C393.25 558.32 382.87 551.74 372.74 545.32C329.28 517.79 298.23 474.44 286.13 424.44C285.35 421.21 288.24 433.18 284.06 415.88C282.99 411.48 278.95 408.45 274.42 408.67C247.55 409.96 176.08 413.39 149.54 414.67C144.83 414.89 141.67 419.62 143.27 424.06C151.69 447.48 155.81 458.94 159.75 469.9C176.57 516.65 204.81 558.45 241.91 591.5C246.32 595.42 235.99 586.23 248.65 597.5Z" id="a4KaBuCxqG" fill="white" fill-opacity="1" filter="url(#shadow13617241)"></path></g></g><g><use xlink:href="#hWbtuhwY" opacity="1" fill="#675c14" fill-opacity="1"></use><g><filter id="shadow9717011" x="139.04" y="113.53" width="311.47" height="265.07" filterUnits="userSpaceOnUse" primitiveUnits="userSpaceOnUse"><feFlood></feFlood><feComposite in2="SourceAlpha" operator="out"></feComposite><feGaussianBlur stdDeviation="1"></feGaussianBlur><feOffset dx="1" dy="1" result="afterOffset"></feOffset><feFlood flood-color="#ffffff" flood-opacity="0.8"></feFlood><feComposite in2="afterOffset" operator="in"></feComposite><feMorphology operator="dilate" radius="1"></feMorphology><feComposite in2="SourceAlpha" operator="in"></feComposite></filter><path d="M272.48 177.97C283.59 170.07 295.35 163.13 307.63 157.21C324.02 149.33 359.08 132.45 376.55 124.04C383.85 120.53 392.62 123.34 396.52 130.45C406.01 147.77 429.42 190.48 439.39 208.65C441.89 213.22 440.07 218.95 435.39 221.24C411.93 232.73 400.89 238.13 390.12 243.4C343.91 266.02 308.3 305.71 290.8 354.09C289.67 357.21 293.86 345.62 287.81 362.36C286.27 366.63 281.92 369.19 277.44 368.48C250.87 364.26 180.21 353.03 153.97 348.86C149.3 348.12 146.68 343.07 148.76 338.83C159.69 316.48 165.04 305.53 170.16 295.07C191.99 250.44 224.63 211.98 265.13 183.19C269.94 179.77 258.67 187.78 272.48 177.97Z" id="d2S55T2Vr" fill="white" fill-opacity="1" filter="url(#shadow9717011)"></path></g></g><g><use xlink:href="#a6dZNqL06q" opacity="1" fill="#504813" fill-opacity="1"></use><g><filter id="shadow10837586" x="800.73" y="400.11" width="286.8" height="274.69" filterUnits="userSpaceOnUse" primitiveUnits="userSpaceOnUse"><feFlood></feFlood><feComposite in2="SourceAlpha" operator="out"></feComposite><feGaussianBlur stdDeviation="1"></feGaussianBlur><feOffset dx="1" dy="1" result="afterOffset"></feOffset><feFlood flood-color="#ffffff" flood-opacity="0.8"></feFlood><feComposite in2="afterOffset" operator="in"></feComposite><feMorphology operator="dilate" radius="1"></feMorphology><feComposite in2="SourceAlpha" operator="in"></feComposite></filter><path d="M980.64 597.5C970.46 606.56 959.53 614.75 947.97 621.97C932.54 631.6 899.54 652.21 883.09 662.48C876.22 666.77 867.19 664.94 862.55 658.3C851.22 642.13 823.27 602.23 811.38 585.26C808.39 580.99 809.57 575.09 813.97 572.3C836.04 558.32 846.42 551.74 856.55 545.32C900.01 517.79 931.06 474.44 943.16 424.44C943.94 421.21 941.04 433.18 945.23 415.88C946.28 411.55 950.39 408.67 954.83 409.17C979.85 411.99 1045.83 419.42 1070.51 422.2C1075.42 422.75 1078.62 427.62 1077.18 432.35C1070.53 454.11 1068.83 459.65 1066.05 468.74C1051.57 516.1 1024.36 558.56 987.38 591.5C982.97 595.42 993.3 586.23 980.64 597.5Z" id="aKx0T7Fxw" fill="white" fill-opacity="1" filter="url(#shadow10837586)"></path></g></g><g><use xlink:href="#c5KUtf0s3l" opacity="1" fill="#504813" fill-opacity="1"></use><g><filter id="shadow8201031" x="787.87" y="117.96" width="296.28" height="270" filterUnits="userSpaceOnUse" primitiveUnits="userSpaceOnUse"><feFlood></feFlood><feComposite in2="SourceAlpha" operator="out"></feComposite><feGaussianBlur stdDeviation="1"></feGaussianBlur><feOffset dx="1" dy="1" result="afterOffset"></feOffset><feFlood flood-color="#ffffff" flood-opacity="0.8"></feFlood><feComposite in2="afterOffset" operator="in"></feComposite><feMorphology operator="dilate" radius="1"></feMorphology><feComposite in2="SourceAlpha" operator="in"></feComposite></filter><path d="M966.38 187.59C955.66 179.17 944.24 171.68 932.25 165.2C916.26 156.54 882.04 138.03 864.98 128.8C857.86 124.94 848.96 127.34 844.73 134.25C834.43 151.1 809.02 192.65 798.21 210.33C795.49 214.78 797.04 220.59 801.6 223.1C824.49 235.68 835.26 241.6 845.77 247.38C890.86 272.16 924.55 313.49 939.74 362.64C940.72 365.82 937.08 354.05 942.34 371.05C943.68 375.42 947.87 378.27 952.43 377.93C977.3 376.07 1042.79 371.15 1067.33 369.31C1072.13 368.95 1075.29 364.16 1073.75 359.61C1065.6 335.66 1061.29 322.98 1057.41 311.58C1041.51 264.8 1012.34 223.66 973.48 193.16C968.84 189.52 979.71 198.05 966.38 187.59Z" id="bGOEofxiU" fill="white" fill-opacity="1" filter="url(#shadow8201031)"></path></g></g><g><use xlink:href="#d3821mhUT7" opacity="1" fill="#504813" fill-opacity="1"></use><g><filter id="shadow9282369" x="402.66" y="578.1" width="423.32" height="145.97" filterUnits="userSpaceOnUse" primitiveUnits="userSpaceOnUse"><feFlood></feFlood><feComposite in2="SourceAlpha" operator="out"></feComposite><feGaussianBlur stdDeviation="1"></feGaussianBlur><feOffset dx="1" dy="1" result="afterOffset"></feOffset><feFlood flood-color="#ffffff" flood-opacity="0.8"></feFlood><feComposite in2="afterOffset" operator="in"></feComposite><feMorphology operator="dilate" radius="1"></feMorphology><feComposite in2="SourceAlpha" operator="in"></feComposite></filter><path d="M496.22 703.82C516.63 706.48 529.39 708.15 534.49 708.81C589.93 716.04 646.09 715.82 701.47 708.15C705.64 707.57 716.05 706.13 732.7 703.82C774.13 693.49 800.02 687.04 810.38 684.46C814.6 683.4 817 678.95 815.56 674.85C809.25 656.92 793.03 610.78 786.72 592.85C785.21 588.55 780.61 586.18 776.23 587.43C765.78 590.43 742.22 597.18 731.77 600.18C731.77 600.18 716.08 604.25 716.08 604.25C697.89 608.47 712.08 605.18 709.1 605.87C653.7 618.74 596.25 620.13 540.29 609.94C538.12 609.55 554.97 612.61 537.43 609.42C537.43 609.42 521.53 606.26 521.53 606.26C505.33 602.75 464.64 593.96 448.44 590.46C443.93 589.48 439.41 592.07 437.97 596.44C432.27 613.65 417.74 657.59 412.04 674.8C410.67 678.95 413.12 683.39 417.37 684.43C427.88 687.02 454.17 693.48 496.22 703.82Z" id="aiqxis36Q" fill="white" fill-opacity="1" filter="url(#shadow9282369)"></path></g></g><g><use xlink:href="#ayKyHOZMg" opacity="1" fill="#ede8c5" fill-opacity="1"></use><g><use xlink:href="#ayKyHOZMg" opacity="1" fill-opacity="0" stroke="#a4a798" stroke-width="3" stroke-opacity="1"></use></g></g></g></svg>