<?xml version="1.0" encoding="UTF-8" standalone="no"?>
<!DOCTYPE svg PUBLIC "-//W3C//DTD SVG 1.1//EN" "http://www.w3.org/Graphics/SVG/1.1/DTD/svg11.dtd">
<svg version="1.1" xmlns="http://www.w3.org/2000/svg" xmlns:xlink="http://www.w3.org/1999/xlink" preserveAspectRatio="xMidYMid meet" viewBox="289.37440156708027 341.1594344163615 84.59150484471735 259.8695331380717" width="40" height="127"><defs><path d="M292.14 571.37C290.65 571.08 289.74 572.96 290.9 573.95C293.86 576.47 289.8 573.02 290.6 573.7C300.61 582.22 311.71 589.37 323.6 594.96C324.47 595.37 326.65 596.39 330.13 598.03C333.87 596.41 336.21 595.4 337.15 594.99C349.33 589.72 360.54 582.42 370.28 573.41C370.96 572.78 367.59 575.9 370.6 573.12C371.45 572.33 370.71 570.93 369.58 571.17C366.45 571.85 366.59 571.82 364.83 572.2C364.83 572.2 343.19 577.58 343.19 577.58C342.55 577.76 340.94 578.21 338.37 578.93C342.43 453.72 344.96 375.46 345.98 344.16C346.02 342.86 344.79 341.88 343.53 342.23C340.85 342.96 340.65 343.02 339.3 343.39C333.3 345.03 326.96 345.04 320.95 343.4C319.59 343.03 319.7 343.05 317.09 342.34C315.62 341.94 314.18 343.08 314.23 344.6C315.31 375.85 318 453.96 322.31 578.93C316.52 577.25 312.89 576.19 311.44 575.77C311.44 575.77 298.13 572.54 298.13 572.54C295.82 572.09 294.69 571.87 292.14 571.37Z" id="b5i30zYArw"></path><linearGradient id="gradientafScSpqQf" gradientUnits="userSpaceOnUse" x1="330.74" y1="598.03" x2="330.74" y2="342.29"><stop style="stop-color: #96086e;stop-opacity: 1" offset="0%"></stop><stop style="stop-color: #f99a9a;stop-opacity: 0.34" offset="100%"></stop></linearGradient></defs><g><g><use xlink:href="#b5i30zYArw" opacity="1" fill="url(#gradientafScSpqQf)"></use></g></g></svg>