<?xml version="1.0" encoding="UTF-8" standalone="no"?>
<!DOCTYPE svg PUBLIC "-//W3C//DTD SVG 1.1//EN" "http://www.w3.org/Graphics/SVG/1.1/DTD/svg11.dtd">
<svg version="1.1" xmlns="http://www.w3.org/2000/svg" xmlns:xlink="http://www.w3.org/1999/xlink" preserveAspectRatio="xMidYMid meet" viewBox="-0.9999999999999787 -1.0000000000000142 209.99999999999991 60.000000000000036" width="208" height="58"><defs><path d="M197.96 4C201.29 4 204 6.71 204 10.04C204 18.83 204 39.17 204 47.96C204 51.29 201.29 54 197.96 54C159.17 54 48.83 54 10.04 54C6.71 54 4 51.29 4 47.96C4 39.17 4 18.83 4 10.04C4 6.71 6.71 4 10.04 4C48.83 4 159.17 4 197.96 4Z" id="cMPmtZm"></path><clipPath id="clipc1xksA3gHz"><use xlink:href="#cMPmtZm" opacity="1"></use></clipPath></defs><g><g><g><filter id="shadow1112034" x="-7" y="-7" width="222" height="72" filterUnits="userSpaceOnUse" primitiveUnits="userSpaceOnUse"><feFlood></feFlood><feComposite in2="SourceAlpha" operator="in"></feComposite><feGaussianBlur stdDeviation="1"></feGaussianBlur><feOffset dx="0" dy="0" result="afterOffset"></feOffset><feFlood flood-color="#f0ee70" flood-opacity="0.5"></feFlood><feComposite in2="afterOffset" operator="in"></feComposite><feMorphology operator="dilate" radius="4"></feMorphology><feComposite in2="SourceAlpha" operator="out"></feComposite></filter><path d="M197.96 4C201.29 4 204 6.71 204 10.04C204 18.83 204 39.17 204 47.96C204 51.29 201.29 54 197.96 54C159.17 54 48.83 54 10.04 54C6.71 54 4 51.29 4 47.96C4 39.17 4 18.83 4 10.04C4 6.71 6.71 4 10.04 4C48.83 4 159.17 4 197.96 4Z" id="bfp1i90Y5" fill="white" fill-opacity="1" filter="url(#shadow1112034)"></path></g><use xlink:href="#cMPmtZm" opacity="1" fill="#86879e" fill-opacity="1"></use><g clip-path="url(#clipc1xksA3gHz)"><use xlink:href="#cMPmtZm" opacity="1" fill-opacity="0" stroke="#7084e6" stroke-width="8" stroke-opacity="1"></use></g></g></g></svg>