<?xml version="1.0" encoding="UTF-8" standalone="no"?>
<!DOCTYPE svg PUBLIC "-//W3C//DTD SVG 1.1//EN" "http://www.w3.org/Graphics/SVG/1.1/DTD/svg11.dtd">
<svg version="1.1" xmlns="http://www.w3.org/2000/svg" xmlns:xlink="http://www.w3.org/1999/xlink" preserveAspectRatio="xMidYMid meet" viewBox="144.47841726618694 144.47841726618694 351.54316546762607 351.54316546762595" width="50" height="50"><defs><path d="M493.02 320C493.02 415.49 415.49 493.02 320 493.02C224.51 493.02 146.98 415.49 146.98 320C146.98 224.51 224.51 146.98 320 146.98C415.49 146.98 493.02 224.51 493.02 320Z" id="a3G2FxK7i"></path><radialGradient id="gradienth113WZiree" gradientUnits="userSpaceOnUse" cx="235.11" cy="205.97" dx="427.19" dy="439.06" r="302.04"><stop style="stop-color: #f6e0bf;stop-opacity: 1" offset="0%"></stop><stop style="stop-color: #e1bc72;stop-opacity: 1" offset="43.90094460045958%"></stop><stop style="stop-color: #c68f0f;stop-opacity: 1" offset="100%"></stop></radialGradient><path d="M420 322.16C420 376.16 374.22 420 317.84 420C261.46 420 215.68 376.16 215.68 322.16C215.68 268.16 261.46 224.32 317.84 224.32C374.22 224.32 420 268.16 420 322.16Z" id="dBn5NjgMv"></path><radialGradient id="gradientb3nVtFEZz" gradientUnits="userSpaceOnUse" cx="268.92" cy="250.22" dx="368.2" dy="394.82" r="175.41"><stop style="stop-color: #f5dfbd;stop-opacity: 1" offset="0%"></stop><stop style="stop-color: #c68f0f;stop-opacity: 1" offset="100%"></stop></radialGradient></defs><g><g><use xlink:href="#a3G2FxK7i" opacity="1" fill="url(#gradienth113WZiree)"></use><g><use xlink:href="#a3G2FxK7i" opacity="1" fill-opacity="0" stroke="#d2bb42" stroke-width="5" stroke-opacity="1"></use></g></g><g><use xlink:href="#dBn5NjgMv" opacity="1" fill="url(#gradientb3nVtFEZz)"></use><g><use xlink:href="#dBn5NjgMv" opacity="1" fill-opacity="0" stroke="#d8c45b" stroke-width="3" stroke-opacity="1"></use></g></g></g></svg>