<?xml version="1.0" encoding="UTF-8" standalone="no"?>
<!DOCTYPE svg PUBLIC "-//W3C//DTD SVG 1.1//EN" "http://www.w3.org/Graphics/SVG/1.1/DTD/svg11.dtd">
<svg version="1.1" xmlns="http://www.w3.org/2000/svg" xmlns:xlink="http://www.w3.org/1999/xlink" preserveAspectRatio="xMidYMid meet" viewBox="0 0 250 200" width="250" height="200"><defs><path d="M0 88.5L121.62 0L250 0L250 200L0 200L0 88.5Z" id="az2byV0Rk"></path><clipPath id="clipc1IxDRQing"><use xlink:href="#az2byV0Rk" opacity="1"></use></clipPath><path d="M235.81 136.65C239.26 136.65 242.06 139.45 242.06 142.9C242.06 152.5 242.06 175.03 242.06 184.62C242.06 188.07 239.26 190.87 235.81 190.87C190.39 190.87 60.39 190.87 14.97 190.87C11.52 190.87 8.72 188.07 8.72 184.62C8.72 175.03 8.72 152.5 8.72 142.9C8.72 139.45 11.52 136.65 14.97 136.65C60.39 136.65 190.39 136.65 235.81 136.65Z" id="c3WQ246oR"></path><path d="M236.99 6.93C239.79 6.93 242.06 9.2 242.06 12C242.06 27.13 242.06 67.46 242.06 82.59C242.06 85.39 239.79 87.66 236.99 87.66C214.31 87.66 151.33 87.66 128.65 87.66C125.85 87.66 123.58 85.39 123.58 82.59C123.58 67.46 123.58 27.13 123.58 12C123.58 9.2 125.85 6.93 128.65 6.93C151.33 6.93 214.31 6.93 236.99 6.93Z" id="j2OPvfow"></path></defs><g><g><g><use xlink:href="#az2byV0Rk" opacity="1" fill="#bda495" fill-opacity="1"></use><g clip-path="url(#clipc1IxDRQing)"><use xlink:href="#az2byV0Rk" opacity="1" fill-opacity="0" stroke="#ffffff" stroke-width="8" stroke-opacity="1"></use></g></g><g><use xlink:href="#c3WQ246oR" opacity="1" fill="#cfd4cc" fill-opacity="1"></use><g><filter id="shadow16560538" x="0.72" y="128.65" width="249.33" height="70.22" filterUnits="userSpaceOnUse" primitiveUnits="userSpaceOnUse"><feFlood></feFlood><feComposite in2="SourceAlpha" operator="out"></feComposite><feGaussianBlur stdDeviation="1"></feGaussianBlur><feOffset dx="0" dy="0" result="afterOffset"></feOffset><feFlood flood-color="#785a5a" flood-opacity="0.8"></feFlood><feComposite in2="afterOffset" operator="in"></feComposite><feMorphology operator="dilate" radius="1"></feMorphology><feComposite in2="SourceAlpha" operator="in"></feComposite></filter><path d="M235.81 136.65C239.26 136.65 242.06 139.45 242.06 142.9C242.06 152.5 242.06 175.03 242.06 184.62C242.06 188.07 239.26 190.87 235.81 190.87C190.39 190.87 60.39 190.87 14.97 190.87C11.52 190.87 8.72 188.07 8.72 184.62C8.72 175.03 8.72 152.5 8.72 142.9C8.72 139.45 11.52 136.65 14.97 136.65C60.39 136.65 190.39 136.65 235.81 136.65Z" id="b1BH8cyx8d" fill="white" fill-opacity="1" filter="url(#shadow16560538)"></path></g></g><g><use xlink:href="#j2OPvfow" opacity="1" fill="#c2bc59" fill-opacity="1"></use><g><filter id="shadow13738340" x="115.58" y="-1.07" width="134.47" height="96.72" filterUnits="userSpaceOnUse" primitiveUnits="userSpaceOnUse"><feFlood></feFlood><feComposite in2="SourceAlpha" operator="out"></feComposite><feGaussianBlur stdDeviation="1"></feGaussianBlur><feOffset dx="0" dy="0" result="afterOffset"></feOffset><feFlood flood-color="#635a5a" flood-opacity="0.8"></feFlood><feComposite in2="afterOffset" operator="in"></feComposite><feMorphology operator="dilate" radius="1"></feMorphology><feComposite in2="SourceAlpha" operator="in"></feComposite></filter><path d="M236.99 6.93C239.79 6.93 242.06 9.2 242.06 12C242.06 27.13 242.06 67.46 242.06 82.59C242.06 85.39 239.79 87.66 236.99 87.66C214.31 87.66 151.33 87.66 128.65 87.66C125.85 87.66 123.58 85.39 123.58 82.59C123.58 67.46 123.58 27.13 123.58 12C123.58 9.2 125.85 6.93 128.65 6.93C151.33 6.93 214.31 6.93 236.99 6.93Z" id="cd0cZ5GJm" fill="white" fill-opacity="1" filter="url(#shadow13738340)"></path></g></g></g></g></svg>