<?xml version="1.0" encoding="UTF-8" standalone="no"?>
<!DOCTYPE svg PUBLIC "-//W3C//DTD SVG 1.1//EN" "http://www.w3.org/Graphics/SVG/1.1/DTD/svg11.dtd">
<svg version="1.1" xmlns="http://www.w3.org/2000/svg" xmlns:xlink="http://www.w3.org/1999/xlink" preserveAspectRatio="xMidYMid meet" viewBox="0 0 32 32" width="32" height="32"><defs><path d="M29.47 19.54L32.21 5.82L16 2L0.27 5.82L2.49 19.34L29.47 19.54Z" id="cekGtOKMk"></path><linearGradient id="gradientdLX4CwjOJ" gradientUnits="userSpaceOnUse" x1="1.76" y1="11.52" x2="31.41" y2="11.52"><stop style="stop-color: #c66262;stop-opacity: 1" offset="0%"></stop><stop style="stop-color: #c20505;stop-opacity: 1" offset="15.310492505353313%"></stop><stop style="stop-color: #bd5e5e;stop-opacity: 1" offset="36.29550321199143%"></stop><stop style="stop-color: #950000;stop-opacity: 1" offset="58.351177730192724%"></stop><stop style="stop-color: #c37676;stop-opacity: 1" offset="78.4796573875803%"></stop><stop style="stop-color: #b11111;stop-opacity: 1" offset="100%"></stop></linearGradient><path d="M30 16C30 23.73 23.73 30 16 30C8.27 30 2 23.73 2 16C2 8.27 8.27 2 16 2C23.73 2 30 8.27 30 16Z" id="b29htVMzgd"></path><path d="M30 16C30 22.68 25.67 5.43 16.98 5.31C8.29 5.18 3.52 18.82 2 16C2.06 8.29 8.27 2 16 2C23.73 2 30 8.27 30 16Z" id="aMDr0qmDH"></path><path d="M9.04 24.09C8.64 22.96 7.69 22.66 6.18 23.2C7.18 24.77 8.13 25.06 9.04 24.09Z" id="c5ZrF4VyLq"></path><path d="M5.32 26.04C6.45 25.62 6.73 24.66 6.16 23.16C4.61 24.19 4.33 25.15 5.32 26.04Z" id="aw9YUKbMl"></path><path d="M24.9 24.49C25.66 23.37 26.13 22.66 26.32 22.38C27.85 20.12 27.88 17.15 26.41 14.85C25.83 13.95 26.19 14.51 25.52 13.47C24.2 11.4 22.41 9.67 20.31 8.39C19.63 7.98 20.44 8.47 19.67 8C17.93 6.95 15.79 6.78 13.9 7.53C13.08 7.87 14.5 7.29 13.9 7.53C11.23 8.61 8.96 10.49 7.4 12.91C6.73 13.94 6.81 13.82 6.07 14.98C4.82 16.92 4.58 19.35 5.43 21.5C5.54 21.77 5.81 22.45 6.24 23.54" id="m3Mt4WEhj"></path><path d="M8.04 22.27C7.87 21.09 6.99 20.61 5.41 20.85C6.09 22.58 6.96 23.05 8.04 22.27Z" id="d3ZuBQd6U7"></path><path d="M4.02 23.47C5.21 23.27 5.67 22.39 5.4 20.81C3.68 21.52 3.22 22.4 4.02 23.47Z" id="ecXHToYsw"></path><path d="M7.1 20.29C7.24 19.09 6.51 18.41 4.92 18.24C5.13 20.08 5.86 20.77 7.1 20.29Z" id="ecZOLylnd"></path><path d="M2.91 20.41C4.1 20.53 4.77 19.79 4.91 18.19C3.07 18.44 2.4 19.18 2.91 20.41Z" id="b1peGw7hLy"></path><path d="M6.88 18.49C7.44 17.43 7 16.53 5.57 15.8C5.11 17.6 5.55 18.5 6.88 18.49Z" id="d8JWijTEr"></path><path d="M2.92 17.12C4 17.66 4.88 17.2 5.58 15.76C3.77 15.34 2.89 15.79 2.92 17.12Z" id="bMwlkOGm4"></path><path d="M7.48 16.47C8.34 15.64 8.21 14.65 7.09 13.51C6.09 15.07 6.22 16.06 7.48 16.47Z" id="dnB37eNnB"></path><path d="M4.16 13.92C5.01 14.76 5.99 14.61 7.12 13.47C5.54 12.49 4.55 12.64 4.16 13.92Z" id="c1IZMXJI4W"></path><path d="M8.84 14.16C9.72 13.35 9.62 12.35 8.52 11.18C7.48 12.72 7.59 13.71 8.84 14.16Z" id="b23MkrkUQa"></path><path d="M5.58 11.52C6.41 12.39 7.4 12.26 8.55 11.15C6.99 10.13 6.01 10.26 5.58 11.52Z" id="fhy8QcRa9"></path><path d="M10.38 12.42C11.34 11.71 11.35 10.71 10.39 9.43C9.18 10.84 9.18 11.84 10.38 12.42Z" id="aB7YfcPK4"></path><path d="M7.42 9.44C8.15 10.39 9.15 10.38 10.42 9.39C8.98 8.22 7.98 8.23 7.42 9.44Z" id="aCjY7gPL"></path><path d="M12.3 10.92C13.33 10.31 13.43 9.32 12.61 7.95C11.27 9.23 11.16 10.22 12.3 10.92Z" id="efK2DiFl8"></path><path d="M9.66 7.66C10.29 8.68 11.28 8.77 12.64 7.92C11.33 6.6 10.34 6.52 9.66 7.66Z" id="e2EHnRmSwq"></path><path d="M21.5 7.36C20.71 6.45 19.72 6.53 18.52 7.59C20.02 8.68 21.02 8.6 21.5 7.36Z" id="c5L3Sai9ZB"></path><path d="M18.77 10.54C19.66 9.73 19.56 8.74 18.48 7.56C17.42 9.09 17.52 10.08 18.77 10.54Z" id="abIrcw7ZJ"></path><path d="M13.92 9.75C15.11 9.66 15.65 8.82 15.53 7.22C13.75 7.77 13.22 8.61 13.92 9.75Z" id="a2pyyIB3nP"></path><path d="M13.02 5.65C13.13 6.85 13.98 7.37 15.57 7.21C14.99 5.45 14.14 4.93 13.02 5.65Z" id="eLc8f0Ysz"></path><path d="M18.99 5.74C17.95 5.15 17.03 5.55 16.25 6.94C18.02 7.47 18.94 7.07 18.99 5.74Z" id="atMNpphCW"></path><path d="M17.45 9.65C18.03 8.59 17.61 7.69 16.2 6.93C15.71 8.72 16.12 9.62 17.45 9.65Z" id="l22Lgtp981"></path><path d="M23.95 9.05C23.26 8.06 22.27 8.03 20.96 8.96C22.34 10.2 23.34 10.23 23.95 9.05Z" id="h2W4KWFD6"></path><path d="M20.9 11.92C21.87 11.22 21.88 10.22 20.93 8.93C19.71 10.34 19.7 11.33 20.9 11.92Z" id="c87VllYj3"></path><path d="M26.1 11.53C25.7 10.39 24.75 10.1 23.24 10.64C24.24 12.2 25.19 12.5 26.1 11.53Z" id="g2QDnldoFZ"></path><path d="M22.38 13.47C23.51 13.05 23.79 12.1 23.22 10.6C21.67 11.62 21.39 12.58 22.38 13.47Z" id="ifctGoBG"></path><path d="M28.08 12.96C27.4 11.97 26.4 11.93 25.09 12.84C26.46 14.1 27.45 14.14 28.08 12.96Z" id="l5O2PejpzB"></path><path d="M24.99 15.8C25.97 15.11 25.99 14.11 25.05 12.81C23.83 14.21 23.81 15.2 24.99 15.8Z" id="h5S95Rw3QO"></path><path d="M29.38 16.08C28.99 14.94 28.03 14.65 26.53 15.19C27.52 16.75 28.47 17.05 29.38 16.08Z" id="b2uldqVaDz"></path><path d="M25.67 18.02C26.79 17.6 27.07 16.65 26.5 15.15C24.95 16.18 24.68 17.13 25.67 18.02Z" id="b4F69HUzLI"></path><path d="M29.64 20.33C29.83 19.15 29.12 18.44 27.54 18.21C27.68 20.06 28.38 20.77 29.64 20.33Z" id="a2Kn07MWAi"></path><path d="M25.45 20.3C26.64 20.46 27.33 19.75 27.54 18.16C25.69 18.34 24.99 19.05 25.45 20.3Z" id="b5Ssvwg8kL"></path><path d="M28.71 23.46C29.2 22.37 28.72 21.5 27.25 20.85C26.9 22.67 27.38 23.54 28.71 23.46Z" id="a9M68MUdS"></path><path d="M24.68 22.32C25.78 22.79 26.64 22.28 27.26 20.81C25.43 20.49 24.57 20.99 24.68 22.32Z" id="b2FbB29HIS"></path><path d="M26.63 26.21C27.41 25.3 27.19 24.33 25.97 23.29C25.11 24.93 25.33 25.91 26.63 26.21Z" id="cZZW0hGOG"></path><path d="M23.09 23.96C24.01 24.73 24.98 24.49 25.99 23.25C24.33 22.42 23.36 22.66 23.09 23.96Z" id="aZypUIQCC"></path></defs><g><g><g><use xlink:href="#cekGtOKMk" opacity="1" fill="url(#gradientdLX4CwjOJ)"></use></g><g><use xlink:href="#b29htVMzgd" opacity="1" fill="#cba77b" fill-opacity="1"></use></g><g><use xlink:href="#aMDr0qmDH" opacity="1" fill="#e0e0df" fill-opacity="1"></use></g><g><use xlink:href="#c5ZrF4VyLq" opacity="1" fill="#149015" fill-opacity="1"></use></g><g><use xlink:href="#aw9YUKbMl" opacity="1" fill="#149015" fill-opacity="1"></use></g><g><g><use xlink:href="#m3Mt4WEhj" opacity="1" fill-opacity="0" stroke="#1a5a37" stroke-width="0.5" stroke-opacity="1"></use></g></g><g><use xlink:href="#d3ZuBQd6U7" opacity="1" fill="#149015" fill-opacity="1"></use></g><g><use xlink:href="#ecXHToYsw" opacity="1" fill="#149015" fill-opacity="1"></use></g><g><use xlink:href="#ecZOLylnd" opacity="1" fill="#149015" fill-opacity="1"></use></g><g><use xlink:href="#b1peGw7hLy" opacity="1" fill="#149015" fill-opacity="1"></use></g><g><use xlink:href="#d8JWijTEr" opacity="1" fill="#149015" fill-opacity="1"></use></g><g><use xlink:href="#bMwlkOGm4" opacity="1" fill="#149015" fill-opacity="1"></use></g><g><use xlink:href="#dnB37eNnB" opacity="1" fill="#149015" fill-opacity="1"></use></g><g><use xlink:href="#c1IZMXJI4W" opacity="1" fill="#149015" fill-opacity="1"></use></g><g><use xlink:href="#b23MkrkUQa" opacity="1" fill="#149015" fill-opacity="1"></use></g><g><use xlink:href="#fhy8QcRa9" opacity="1" fill="#149015" fill-opacity="1"></use></g><g><use xlink:href="#aB7YfcPK4" opacity="1" fill="#149015" fill-opacity="1"></use></g><g><use xlink:href="#aCjY7gPL" opacity="1" fill="#149015" fill-opacity="1"></use></g><g><use xlink:href="#efK2DiFl8" opacity="1" fill="#149015" fill-opacity="1"></use></g><g><use xlink:href="#e2EHnRmSwq" opacity="1" fill="#149015" fill-opacity="1"></use></g><g><use xlink:href="#c5L3Sai9ZB" opacity="1" fill="#149015" fill-opacity="1"></use></g><g><use xlink:href="#abIrcw7ZJ" opacity="1" fill="#149015" fill-opacity="1"></use></g><g><use xlink:href="#a2pyyIB3nP" opacity="1" fill="#149015" fill-opacity="1"></use></g><g><use xlink:href="#eLc8f0Ysz" opacity="1" fill="#149015" fill-opacity="1"></use></g><g><use xlink:href="#atMNpphCW" opacity="1" fill="#149015" fill-opacity="1"></use></g><g><use xlink:href="#l22Lgtp981" opacity="1" fill="#149015" fill-opacity="1"></use></g><g><use xlink:href="#h2W4KWFD6" opacity="1" fill="#149015" fill-opacity="1"></use></g><g><use xlink:href="#c87VllYj3" opacity="1" fill="#149015" fill-opacity="1"></use></g><g><use xlink:href="#g2QDnldoFZ" opacity="1" fill="#149015" fill-opacity="1"></use></g><g><use xlink:href="#ifctGoBG" opacity="1" fill="#149015" fill-opacity="1"></use></g><g><use xlink:href="#l5O2PejpzB" opacity="1" fill="#149015" fill-opacity="1"></use></g><g><use xlink:href="#h5S95Rw3QO" opacity="1" fill="#149015" fill-opacity="1"></use></g><g><use xlink:href="#b2uldqVaDz" opacity="1" fill="#149015" fill-opacity="1"></use></g><g><use xlink:href="#b4F69HUzLI" opacity="1" fill="#149015" fill-opacity="1"></use></g><g><use xlink:href="#a2Kn07MWAi" opacity="1" fill="#149015" fill-opacity="1"></use></g><g><use xlink:href="#b5Ssvwg8kL" opacity="1" fill="#149015" fill-opacity="1"></use></g><g><use xlink:href="#a9M68MUdS" opacity="1" fill="#149015" fill-opacity="1"></use></g><g><use xlink:href="#b2FbB29HIS" opacity="1" fill="#149015" fill-opacity="1"></use></g><g><use xlink:href="#cZZW0hGOG" opacity="1" fill="#149015" fill-opacity="1"></use></g><g><use xlink:href="#aZypUIQCC" opacity="1" fill="#149015" fill-opacity="1"></use></g></g></g></svg>