<?xml version="1.0" encoding="UTF-8" standalone="no"?>
<!DOCTYPE svg PUBLIC "-//W3C//DTD SVG 1.1//EN" "http://www.w3.org/Graphics/SVG/1.1/DTD/svg11.dtd">
<svg version="1.1" xmlns="http://www.w3.org/2000/svg" xmlns:xlink="http://www.w3.org/1999/xlink" preserveAspectRatio="xMidYMid meet" viewBox="88.58082465467885 64.76978417266187 459.2374100719427 459.2374100719427" width="128" height="128"><defs><path d="M512.01 67.77C530.13 67.77 544.82 82.46 544.82 100.58C544.82 184.67 544.82 404.11 544.82 488.19C544.82 506.32 530.13 521.01 512.01 521.01C427.92 521.01 208.48 521.01 124.39 521.01C106.27 521.01 91.58 506.32 91.58 488.19C91.58 404.11 91.58 184.67 91.58 100.58C91.58 82.46 106.27 67.77 124.39 67.77C208.48 67.77 427.92 67.77 512.01 67.77Z" id="e35G094If0"></path><clipPath id="clipa3om5YbyKY"><use xlink:href="#e35G094If0" opacity="1"></use></clipPath><clipPath id="clipb49H7fP2xL"><use xlink:href="#e35G094If0" opacity="1"></use></clipPath><path d="M106.52 441.15C142.62 441.39 491.8 441.39 529.29 441.15C531.43 469.55 527.93 489.2 518.8 500.1C516.09 503.32 512.1 505.19 507.9 505.21C430.87 505.54 206.44 506.49 129.41 506.82C125.17 506.84 121.11 505.13 118.16 502.08C109.34 492.99 105.46 472.68 106.52 441.15Z" id="alRcMnakH"></path><path d="M106.68 146.82C142.78 146.57 491.79 146.57 529.28 146.82C531.42 118.41 527.92 98.76 518.79 87.87C516.08 84.64 512.1 82.77 507.89 82.76C430.86 82.43 206.43 81.47 129.4 81.15C125.17 81.13 121.11 82.85 118.17 85.9C109.45 94.98 105.62 115.29 106.68 146.82Z" id="cphhUYkAg"></path></defs><g><g><use xlink:href="#e35G094If0" opacity="1" fill="#ec9aac" fill-opacity="1"></use><g clip-path="url(#clipa3om5YbyKY)"><use xlink:href="#e35G094If0" opacity="1" fill-opacity="0" stroke="#bdbdbd" stroke-width="16" stroke-opacity="1"></use></g><g clip-path="url(#clipb49H7fP2xL)"><use xlink:href="#e35G094If0" opacity="1" fill-opacity="0" stroke="#777072" stroke-width="8" stroke-opacity="1"></use></g></g><g><use xlink:href="#alRcMnakH" opacity="1" fill="#decd56" fill-opacity="1"></use></g><g><use xlink:href="#cphhUYkAg" opacity="1" fill="#51eac8" fill-opacity="1"></use></g></g></svg>