<?xml version="1.0" encoding="UTF-8" standalone="no"?>
<!DOCTYPE svg PUBLIC "-//W3C//DTD SVG 1.1//EN" "http://www.w3.org/Graphics/SVG/1.1/DTD/svg11.dtd">
<svg version="1.1" xmlns="http://www.w3.org/2000/svg" xmlns:xlink="http://www.w3.org/1999/xlink" preserveAspectRatio="xMidYMid meet" viewBox="80.15107913669056 56.76978417266187 457.2374100719427 457.2374100719427" width="128" height="128"><defs><path d="M501.58 57.77C519.7 57.77 534.39 72.46 534.39 90.58C534.39 174.67 534.39 394.11 534.39 478.19C534.39 496.32 519.7 511.01 501.58 511.01C417.49 511.01 198.05 511.01 113.96 511.01C95.84 511.01 81.15 496.32 81.15 478.19C81.15 394.11 81.15 174.67 81.15 90.58C81.15 72.46 95.84 57.77 113.96 57.77C198.05 57.77 417.49 57.77 501.58 57.77Z" id="a68f39emb"></path><clipPath id="clipbCqwFB4R9"><use xlink:href="#a68f39emb" opacity="1"></use></clipPath><clipPath id="clipa1iaVsxfP8"><use xlink:href="#a68f39emb" opacity="1"></use></clipPath><path d="M96.52 431.15C132.62 431.39 481.8 431.39 519.29 431.15C521.43 459.55 517.93 479.2 508.8 490.1C506.09 493.32 502.11 495.19 497.9 495.21C420.87 495.54 196.44 496.49 119.41 496.82C115.17 496.84 111.11 495.13 108.16 492.08C99.34 482.99 95.46 462.68 96.52 431.15Z" id="aOL0l0rFT"></path><path d="M96.69 136.82C132.79 136.57 481.8 136.57 519.29 136.82C521.43 108.41 517.93 88.76 508.8 77.87C506.09 74.64 502.11 72.77 497.9 72.76C420.87 72.43 196.44 71.47 119.42 71.15C115.18 71.13 111.12 72.85 108.18 75.9C99.46 84.98 95.63 105.29 96.69 136.82Z" id="d2O2ywZNj"></path></defs><g><g><use xlink:href="#a68f39emb" opacity="1" fill="#777072" fill-opacity="1"></use><g clip-path="url(#clipbCqwFB4R9)"><use xlink:href="#a68f39emb" opacity="1" fill-opacity="0" stroke="#bdbdbd" stroke-width="16" stroke-opacity="1"></use></g><g clip-path="url(#clipa1iaVsxfP8)"><use xlink:href="#a68f39emb" opacity="1" fill-opacity="0" stroke="#777072" stroke-width="8" stroke-opacity="1"></use></g></g><g><use xlink:href="#aOL0l0rFT" opacity="1" fill="#decd56" fill-opacity="1"></use></g><g><use xlink:href="#d2O2ywZNj" opacity="1" fill="#51eac8" fill-opacity="1"></use></g></g></svg>