<?xml version="1.0" encoding="UTF-8" standalone="no"?>
<!DOCTYPE svg PUBLIC "-//W3C//DTD SVG 1.1//EN" "http://www.w3.org/Graphics/SVG/1.1/DTD/svg11.dtd">
<svg version="1.1" xmlns="http://www.w3.org/2000/svg" xmlns:xlink="http://www.w3.org/1999/xlink" preserveAspectRatio="xMidYMid meet" viewBox="71.15107913669056 47.76978417266187 473.2374100719427 473.2374100719427" width="132" height="132"><defs><path d="M501.58 57.77C519.7 57.77 534.39 72.46 534.39 90.58C534.39 174.67 534.39 394.11 534.39 478.19C534.39 496.32 519.7 511.01 501.58 511.01C417.49 511.01 198.05 511.01 113.96 511.01C95.84 511.01 81.15 496.32 81.15 478.19C81.15 394.11 81.15 174.67 81.15 90.58C81.15 72.46 95.84 57.77 113.96 57.77C198.05 57.77 417.49 57.77 501.58 57.77Z" id="a70w6VRCkI"></path><clipPath id="clipd7YKHY81sZ"><use xlink:href="#a70w6VRCkI" opacity="1"></use></clipPath><clipPath id="clipg2bBYgDrw"><use xlink:href="#a70w6VRCkI" opacity="1"></use></clipPath><path d="M96.52 431.15C132.62 431.39 481.8 431.39 519.29 431.15C521.43 459.55 517.93 479.2 508.8 490.1C506.09 493.32 502.1 495.19 497.9 495.21C420.87 495.54 196.44 496.49 119.41 496.82C115.17 496.84 111.11 495.13 108.16 492.08C99.34 482.99 95.46 462.68 96.52 431.15Z" id="k3UUh7fAXv"></path><path d="M96.68 136.82C132.78 136.57 481.79 136.57 519.28 136.82C521.42 108.41 517.92 88.76 508.79 77.87C506.08 74.64 502.1 72.77 497.89 72.76C420.86 72.43 196.43 71.47 119.4 71.15C115.17 71.13 111.11 72.85 108.17 75.9C99.45 84.98 95.62 105.29 96.68 136.82Z" id="f126G4Mzg5"></path></defs><g><g><g><filter id="shadow8754534" x="64.15" y="40.77" width="487.24" height="487.24" filterUnits="userSpaceOnUse" primitiveUnits="userSpaceOnUse"><feFlood></feFlood><feComposite in2="SourceAlpha" operator="in"></feComposite><feGaussianBlur stdDeviation="1.41"></feGaussianBlur><feOffset dx="0" dy="0" result="afterOffset"></feOffset><feFlood flood-color="#49f923" flood-opacity="0.5"></feFlood><feComposite in2="afterOffset" operator="in"></feComposite><feMorphology operator="dilate" radius="8"></feMorphology><feComposite in2="SourceAlpha" operator="out"></feComposite></filter><path d="M501.58 57.77C519.7 57.77 534.39 72.46 534.39 90.58C534.39 174.67 534.39 394.11 534.39 478.19C534.39 496.32 519.7 511.01 501.58 511.01C417.49 511.01 198.05 511.01 113.96 511.01C95.84 511.01 81.15 496.32 81.15 478.19C81.15 394.11 81.15 174.67 81.15 90.58C81.15 72.46 95.84 57.77 113.96 57.77C198.05 57.77 417.49 57.77 501.58 57.77Z" id="b74rTXgWxq" fill="white" fill-opacity="1" filter="url(#shadow8754534)"></path></g><use xlink:href="#a70w6VRCkI" opacity="1" fill="#777072" fill-opacity="1"></use><g clip-path="url(#clipd7YKHY81sZ)"><use xlink:href="#a70w6VRCkI" opacity="1" fill-opacity="0" stroke="#bdbdbd" stroke-width="16" stroke-opacity="1"></use></g><g clip-path="url(#clipg2bBYgDrw)"><use xlink:href="#a70w6VRCkI" opacity="1" fill-opacity="0" stroke="#777072" stroke-width="8" stroke-opacity="1"></use></g></g><g><use xlink:href="#k3UUh7fAXv" opacity="1" fill="#decd56" fill-opacity="1"></use></g><g><use xlink:href="#f126G4Mzg5" opacity="1" fill="#51eac8" fill-opacity="1"></use></g></g></svg>