<?xml version="1.0" encoding="UTF-8" standalone="no"?>
<!DOCTYPE svg PUBLIC "-//W3C//DTD SVG 1.1//EN" "http://www.w3.org/Graphics/SVG/1.1/DTD/svg11.dtd">
<svg version="1.1" xmlns="http://www.w3.org/2000/svg" xmlns:xlink="http://www.w3.org/1999/xlink" preserveAspectRatio="xMidYMid meet" viewBox="0 0 64 64" width="64" height="64"><defs><path d="M42.75 2.81L43.63 3.14L44.29 3.65L44.71 4.36L44.85 5.31L44.71 6.49L44.29 7.82L43.63 9.27L42.75 10.81L41.7 12.39L40.5 13.98L39.18 15.52L38.92 15.8L39.72 15.82L40.55 15.88L41.34 15.95L42.1 16.06L42.8 16.19L43.46 16.36L44.06 16.57L44.6 16.82L45.06 17.1L45.57 17.52L45.99 17.99L46.35 18.5L46.64 19.05L46.87 19.64L47.04 20.26L47.1 20.56L48.01 19.63L49.18 18.57L50.37 17.62L51.55 16.81L52.72 16.15L53.85 15.65L54.93 15.35L55.94 15.24L56.85 15.35L57.64 15.65L58.32 16.15L58.89 16.81L59.37 17.62L59.77 18.57L60.08 19.63L60.33 20.79L60.51 22.03L60.64 23.34L60.73 24.7L60.78 26.08L60.8 27.48L60.81 28.88L60.8 30.26L60.79 31.59L60.78 32.88L60.81 34.16L60.9 35.49L61.02 36.85L61.17 38.24L61.33 39.62L61.49 40.99L61.62 42.32L61.72 43.61L61.77 44.83L61.76 45.97L61.66 47.01L61.47 47.94L61.18 48.73L60.75 49.38L60.19 49.86L59.48 50.16L58.6 50.27L57.56 50.16L56.4 49.86L55.15 49.38L53.84 48.73L52.47 47.94L51.08 47.01L49.68 45.97L48.32 44.83L46.99 43.61L45.74 42.32L44.57 40.99L44.06 40.31L44.01 40.39L43.38 41.35L42.68 42.27L41.91 43.14L41.07 43.97L40.18 44.75L39.44 45.31L39.55 45.33L40.52 45.57L41.4 45.84L42.17 46.16L42.82 46.52L43.34 46.93L43.73 47.38L43.97 47.89L44.05 48.44L44.1 48.58L44.23 48.7L44.44 48.82L44.72 48.93L45.05 49.03L45.44 49.13L45.86 49.22L46.31 49.32L46.79 49.42L47.28 49.53L47.77 49.64L48.26 49.75L48.73 49.88L49.17 50.02L49.58 50.18L49.95 50.35L50.27 50.54L50.52 50.75L50.71 50.98L50.81 51.24L50.82 51.52L50.74 51.83L50.57 52.12L50.3 52.44L49.95 52.78L49.52 53.14L49.02 53.52L48.46 53.91L47.85 54.31L47.19 54.72L46.5 55.13L45.79 55.55L45.06 55.96L44.33 56.36L43.6 56.76L42.89 57.14L42.19 57.5L41.53 57.85L40.9 58.17L40.33 58.47L39.81 58.73L39.36 58.97L38.99 59.17L38.7 59.32L38.03 59.66L37.34 59.94L36.61 60.18L35.85 60.36L35.07 60.5L34.27 60.6L33.45 60.67L32.62 60.7L31.77 60.71L30.91 60.69L30.05 60.65L29.18 60.59L28.31 60.52L27.45 60.45L26.59 60.36L25.74 60.28L24.9 60.2L24.07 60.12L23.26 60.06L22.48 60.01L21.71 59.97L20.98 59.96L19.68 59.94L18.4 59.88L17.16 59.77L15.95 59.63L14.77 59.45L13.63 59.24L12.54 58.99L11.49 58.71L10.49 58.39L9.54 58.05L8.65 57.68L7.82 57.28L7.06 56.86L6.35 56.41L5.72 55.95L5.17 55.46L4.68 54.95L4.28 54.42L3.96 53.88L3.73 53.33L3.59 52.76L3.54 52.18L3.6 51.75L3.77 51.31L4.03 50.86L4.37 50.4L4.8 49.92L5.28 49.42L5.83 48.91L6.41 48.39L7.03 47.85L7.68 47.3L8.33 46.74L8.99 46.16L9.64 45.57L10.27 44.97L10.87 44.35L11.43 43.72L11.95 43.07L12.4 42.41L12.58 42.09L11.96 41.17L11.4 40.2L10.9 39.19L10.48 38.14L10.13 37.06L9.86 35.95L9.66 34.82L9.54 33.66L9.49 32.49L9.52 32.37L9.58 32.25L9.69 32.12L9.83 31.98L10.01 31.84L10.21 31.69L10.43 31.54L10.67 31.39L10.93 31.23L11.2 31.07L11.48 30.92L11.76 30.76L12.03 30.6L12.3 30.44L12.57 30.29L12.82 30.14L13.05 29.99L13.26 29.84L13.44 29.7L13.59 29.57L13.71 29.44L13.79 29.32L13.83 29.21L14 28.21L14.19 27.23L14.4 26.29L14.59 25.53L13.83 25.67L12.54 25.75L11.25 25.63L10.04 25.29L8.9 24.75L7.84 24.04L6.87 23.16L5.98 22.16L5.2 21.04L4.52 19.83L3.95 18.55L3.5 17.23L3.16 15.88L2.96 14.53L2.89 13.2L2.99 11.91L3.28 10.67L3.73 9.48L4.34 8.36L5.09 7.32L5.97 6.36L6.96 5.5L8.03 4.74L9.19 4.11L10.41 3.59L11.67 3.21L12.97 2.98L14.28 2.9L15.54 3.02L16.7 3.35L17.76 3.89L18.73 4.61L19.59 5.48L20.35 6.49L20.94 7.49L21.2 7.17L21.95 6.43L22.79 5.76L23.72 5.18L24.71 4.68L25.76 4.29L26.88 4L28.04 3.82L29.24 3.76L30.52 3.71L31.9 3.58L33.34 3.4L34.82 3.19L36.31 2.98L37.77 2.79L39.18 2.65L40.5 2.59L41.7 2.64L42.75 2.81Z" id="a1hk87BEAJ"></path><path d="M19.68 14.27C19.68 17.22 14.18 19.95 12.22 19.95C10.25 19.95 8.65 17.55 8.65 14.6C8.65 11.65 10.25 9.25 12.22 9.25C14.18 9.25 19.68 11.32 19.68 14.27Z" id="c4WxuiQ4T8"></path><path d="M56.58 26.95C56.58 28.17 55.25 31.56 55.03 34.2C54.71 38.25 57.99 45.49 56.95 45.49C55.86 45.49 50.76 42.24 49.18 36.91C48.27 33.84 50.36 28.08 50.36 26.95C50.36 23.87 51.75 21.36 53.47 21.36C55.18 21.36 56.58 23.87 56.58 26.95Z" id="briFQl9fk"></path><path d="M27.89 49.78C28.09 49.85 33.35 48.19 33.55 48.27C37.24 49.7 38.09 52.84 38.09 54.11C38.09 56.54 26.89 56.1 21.67 56.1C16.45 56.1 12.22 54.13 12.22 51.71C12.22 49.28 12.39 46.15 17.61 46.15C19.94 46.15 24.7 48.6 27.89 49.78Z" id="b1A6oj1cu2"></path><path d="M41.34 22.39C42.19 24.43 41.61 27.62 41.51 29.85C41.42 31.7 40.37 36.08 38.99 38.08C36.31 41.97 31.77 43.11 27.59 42.92C21.26 42.63 18.15 34.24 18.4 28.8C18.65 23.36 26.64 17.6 32.97 17.89C36.71 18.06 40.11 19.47 41.34 22.39Z" id="ggQEXVo6b"></path><path d="M11.49 14.66C11.49 16.46 12.62 18.61 11.63 18.61C10.65 18.61 9.85 17.14 9.85 15.34C9.85 13.53 11.09 10.58 12.08 10.58C13.07 10.58 11.49 12.86 11.49 14.66Z" id="d2ckbjjUj6"></path><path d="M36.43 22.74C36.43 24.11 29.02 22.93 27.35 24.37C26.26 25.3 23.91 29.8 24.15 33.04C24.42 36.85 27.31 39.41 26.03 39.41C22 39.41 21.63 33.12 21.63 29.81C21.63 26.5 25.5 20.13 29.53 20.13C33.56 20.13 36.43 19.43 36.43 22.74Z" id="b1xfTX1kNh"></path><path d="M51.86 36.09C51.86 40.64 52.79 39.41 52.16 39.41C51.52 39.41 50.39 38.63 50.39 34.07C50.39 29.52 52.41 23.9 53.05 23.9C53.69 23.9 51.86 31.53 51.86 36.09Z" id="g2BIE9p4w"></path><path d="M16.86 50.92C16.86 52.17 17.91 53.18 16.86 53.18C15.82 53.18 14.97 52.17 14.97 50.92C14.97 49.67 15.82 48.66 16.86 48.66C17.91 48.66 16.86 49.67 16.86 50.92Z" id="l1GWntgQN"></path></defs><g><g><g><use xlink:href="#a1hk87BEAJ" opacity="1" fill="#000000" fill-opacity="0.8"></use><g><use xlink:href="#a1hk87BEAJ" opacity="1" fill-opacity="0" stroke="#b0b0b0" stroke-width="1" stroke-opacity="0.8"></use></g></g><g><use xlink:href="#c4WxuiQ4T8" opacity="1" fill="#000000" fill-opacity="0.63"></use></g><g><use xlink:href="#briFQl9fk" opacity="1" fill="#000000" fill-opacity="0.63"></use></g><g><use xlink:href="#b1A6oj1cu2" opacity="1" fill="#000000" fill-opacity="0.63"></use></g><g><use xlink:href="#ggQEXVo6b" opacity="1" fill="#000000" fill-opacity="0.63"></use></g><g><use xlink:href="#d2ckbjjUj6" opacity="1" fill="#aeaeae" fill-opacity="0.63"></use></g><g><use xlink:href="#b1xfTX1kNh" opacity="1" fill="#878787" fill-opacity="0.63"></use></g><g><use xlink:href="#g2BIE9p4w" opacity="1" fill="#747474" fill-opacity="0.63"></use></g><g><use xlink:href="#l1GWntgQN" opacity="1" fill="#9f9f9f" fill-opacity="0.63"></use></g></g></g></svg>