<?xml version="1.0" encoding="UTF-8" standalone="no"?>
<!DOCTYPE svg PUBLIC "-//W3C//DTD SVG 1.1//EN" "http://www.w3.org/Graphics/SVG/1.1/DTD/svg11.dtd">
<svg version="1.1" xmlns="http://www.w3.org/2000/svg" xmlns:xlink="http://www.w3.org/1999/xlink" preserveAspectRatio="xMidYMid meet" viewBox="0 0 64 64" width="64" height="64"><defs><path d="M40.71 36.24L35.73 63.85L27.75 40.71L0.15 35.73L23.29 27.75L28.27 0.14L36.24 23.28L63.85 28.26L40.71 36.24Z" id="dokEyWY7a"></path><path d="M41.69 32L59 49.3L32 41.69L14.69 59L22.31 32L5 14.69L32 22.3L49.31 5L41.69 32Z" id="dach3ivjr"></path><path d="M52 32C52 43.03 43.04 52 32 52C20.96 52 12 43.03 12 32C12 20.96 20.96 12 32 12C43.04 12 52 20.96 52 32Z" id="b7VyMbl73i"></path><path d="M35.71 27.9L44 29.16L38 35.31L39.41 44L32 39.9L24.58 44L26 35.31L20 29.16L28.29 27.9L32 20L35.71 27.9Z" id="i1WsfU6IlP"></path></defs><g><g><g><use xlink:href="#dokEyWY7a" opacity="1" fill="#714545" fill-opacity="1"></use></g><g><use xlink:href="#dach3ivjr" opacity="1" fill="#714545" fill-opacity="1"></use></g><g><use xlink:href="#b7VyMbl73i" opacity="1" fill="#e0e0e0" fill-opacity="1"></use><g><use xlink:href="#b7VyMbl73i" opacity="1" fill-opacity="0" stroke="#909090" stroke-width="1" stroke-opacity="1"></use></g></g><g><use xlink:href="#i1WsfU6IlP" opacity="1" fill="#ae9a10" fill-opacity="1"></use></g></g></g></svg>